<svg width="132" height="133" viewBox="0 0 132 133" fill="none" xmlns="http://www.w3.org/2000/svg">
<path d="M36 0H96V100H36V0Z" fill="#121212"/>
<path fill-rule="evenodd" clip-rule="evenodd" d="M63.75 74.8V79.3H48V74.8H61.018L49.575 63.357L52.757 60.175L63.75 71.168V56.8H68.25V71.1029L79.1779 60.175L82.3599 63.357L70.9169 74.8H84V79.3H68.25V74.8H63.75Z" fill="white"/>
<path d="M6.35191 113.583C8.4508 113.583 10.1631 114.255 11.4887 115.598C12.8143 116.923 13.4771 118.639 13.4771 120.745C13.4771 122.833 12.8051 124.549 11.4611 125.892C10.1354 127.236 8.42318 127.907 6.32429 127.907C4.8698 127.907 3.59021 127.59 2.48553 126.954C1.38085 126.301 0.55234 125.429 0 124.34L2.54077 122.924C3.14834 124.358 4.41872 125.075 6.35191 125.075C7.32771 125.075 8.16543 124.803 8.86506 124.258C9.5831 123.695 10.071 122.969 10.3288 122.08H4.86059V119.383H10.3288C10.071 118.476 9.59231 117.749 8.89267 117.205C8.19304 116.66 7.35533 116.388 6.37953 116.388C5.49578 116.388 4.72251 116.588 4.0597 116.987C3.4153 117.368 2.93661 117.886 2.62361 118.539L0.055235 117.096C0.644398 116.007 1.49132 115.153 2.596 114.536C3.70068 113.901 4.95265 113.583 6.35191 113.583Z" fill="#121212"/>
<path d="M27.8403 127.553H24.2777L18.6162 121.263V127.553H15.6336V113.937H18.6162V119.955L23.9739 113.937H27.6194L21.5436 120.609L27.8403 127.553Z" fill="#121212"/>
<path d="M34.7062 127.907C32.6257 127.907 30.8858 127.218 29.4865 125.838C28.1057 124.458 27.4153 122.76 27.4153 120.745C27.4153 118.712 28.1057 117.014 29.4865 115.653C30.8858 114.273 32.6257 113.583 34.7062 113.583C36.0502 113.583 37.2745 113.901 38.3792 114.536C39.4839 115.171 40.3124 116.025 40.8648 117.096L38.2964 118.566C37.9834 117.913 37.5047 117.405 36.8603 117.041C36.2343 116.66 35.5071 116.469 34.6785 116.469C33.4634 116.469 32.4416 116.878 31.6131 117.695C30.803 118.512 30.3979 119.529 30.3979 120.745C30.3979 121.962 30.803 122.978 31.6131 123.795C32.4416 124.612 33.4634 125.021 34.6785 125.021C35.4886 125.021 36.2159 124.83 36.8603 124.449C37.5231 124.068 38.0202 123.559 38.3516 122.924L40.92 124.367C40.3308 125.456 39.4839 126.319 38.3792 126.954C37.2745 127.59 36.0502 127.907 34.7062 127.907Z" fill="#121212"/>
<path d="M53.9891 113.937V127.553H51.0064V116.769H46.3944V121.834C46.3944 123.995 45.9157 125.529 44.9583 126.437C44.0009 127.345 42.6385 127.717 40.871 127.553V124.803C41.7179 124.948 42.3531 124.776 42.7766 124.285C43.2 123.795 43.4118 122.933 43.4118 121.698V113.937H53.9891Z" fill="#121212"/>
<path d="M66.9098 113.937H69.202V127.553H66.2746V118.893L59.2046 127.553H56.9124V113.937H59.8398V122.57L66.9098 113.937Z" fill="#121212"/>
<path fill-rule="evenodd" clip-rule="evenodd" d="M78.5175 127.907C76.4002 127.907 74.6696 127.236 73.3255 125.892C71.9999 124.531 71.3371 122.797 71.3371 120.691C71.3371 118.385 71.6869 116.606 72.3866 115.353C73.0862 114.082 74.5038 112.929 76.6396 111.894C76.9894 111.731 77.5049 111.495 78.1861 111.186C78.8857 110.878 79.3644 110.66 79.6222 110.533C79.88 110.387 80.2022 110.188 80.5888 109.934C80.9754 109.661 81.2608 109.38 81.4449 109.089C81.629 108.781 81.7763 108.418 81.8868 108L84.3171 109.389C84.2434 109.788 84.1238 110.16 83.9581 110.505C83.7924 110.832 83.553 111.141 83.24 111.431C82.927 111.722 82.6509 111.958 82.4115 112.139C82.1906 112.321 81.8131 112.539 81.2792 112.793C80.7453 113.047 80.3495 113.229 80.0917 113.338C79.8524 113.447 79.3921 113.637 78.7108 113.91C77.4957 114.382 76.6027 114.872 76.032 115.38C75.4796 115.87 75.093 116.488 74.8721 117.232C75.9768 115.997 77.4773 115.38 79.3736 115.38C80.9938 115.38 82.4023 115.952 83.5991 117.096C84.8142 118.24 85.4218 119.719 85.4218 121.535C85.4218 123.387 84.7774 124.912 83.4886 126.11C82.2182 127.308 80.5612 127.907 78.5175 127.907ZM78.4899 125.157C79.6498 125.157 80.598 124.821 81.3344 124.149C82.0709 123.459 82.4391 122.588 82.4391 121.535C82.4391 120.464 82.0709 119.583 81.3344 118.893C80.6164 118.203 79.6774 117.858 78.5175 117.858C77.4865 117.858 76.5567 118.185 75.7282 118.839C74.8997 119.474 74.4854 120.328 74.4854 121.399C74.4854 122.488 74.8721 123.387 75.6454 124.095C76.4186 124.803 77.3668 125.157 78.4899 125.157Z" fill="#121212"/>
<path fill-rule="evenodd" clip-rule="evenodd" d="M95.0431 113.583C96.9394 113.583 98.5596 114.282 99.9036 115.68C101.248 117.06 101.92 118.748 101.92 120.745C101.92 122.76 101.248 124.458 99.9036 125.838C98.5596 127.218 96.9394 127.907 95.0431 127.907C92.9442 127.907 91.3332 127.145 90.2101 125.62V133H87.2274V113.937H90.2101V115.898C91.3332 114.354 92.9442 113.583 95.0431 113.583ZM91.4529 123.877C92.2814 124.694 93.3216 125.102 94.5736 125.102C95.8255 125.102 96.8658 124.694 97.6943 123.877C98.5228 123.042 98.9371 121.998 98.9371 120.745C98.9371 119.492 98.5228 118.458 97.6943 117.641C96.8658 116.805 95.8255 116.388 94.5736 116.388C93.3216 116.388 92.2814 116.805 91.4529 117.641C90.6243 118.458 90.2101 119.492 90.2101 120.745C90.2101 121.998 90.6243 123.042 91.4529 123.877Z" fill="#121212"/>
<path d="M114.068 113.937H116.36V127.553H113.433V118.893L106.363 127.553H104.071V113.937H106.998V122.57L114.068 113.937Z" fill="#121212"/>
<path d="M125.786 127.907C123.706 127.907 121.966 127.218 120.567 125.838C119.186 124.458 118.495 122.76 118.495 120.745C118.495 118.712 119.186 117.014 120.567 115.653C121.966 114.273 123.706 113.583 125.786 113.583C127.13 113.583 128.355 113.901 129.459 114.536C130.564 115.171 131.392 116.025 131.945 117.096L129.376 118.566C129.063 117.913 128.585 117.405 127.94 117.041C127.314 116.66 126.587 116.469 125.759 116.469C124.543 116.469 123.522 116.878 122.693 117.695C121.883 118.512 121.478 119.529 121.478 120.745C121.478 121.962 121.883 122.978 122.693 123.795C123.522 124.612 124.543 125.021 125.759 125.021C126.569 125.021 127.296 124.83 127.94 124.449C128.603 124.068 129.1 123.559 129.432 122.924L132 124.367C131.411 125.456 130.564 126.319 129.459 126.954C128.355 127.59 127.13 127.907 125.786 127.907Z" fill="#121212"/>
</svg>
