<svg width="219" height="40" viewBox="0 0 219 40" fill="none" xmlns="http://www.w3.org/2000/svg">
<path d="M58.6449 11.0746C61.3236 11.0746 63.5088 11.9413 65.2006 13.6749C66.8924 15.385 67.7383 17.5988 67.7383 20.3163C67.7383 23.0103 66.8806 25.2241 65.1653 26.9576C63.4736 28.6912 61.2883 29.5579 58.6097 29.5579C56.7534 29.5579 55.1204 29.148 53.7106 28.3281C52.3007 27.4847 51.2434 26.3602 50.5385 24.9547L53.781 23.1274C54.5564 24.9781 56.1777 25.9034 58.6449 25.9034C59.8903 25.9034 60.9594 25.552 61.8523 24.8493C62.7686 24.123 63.3913 23.186 63.7203 22.0381H56.7417V18.5593H63.7203C63.3913 17.388 62.7804 16.4509 61.8875 15.7481C60.9946 15.0453 59.9255 14.6939 58.6802 14.6939C57.5523 14.6939 56.5654 14.9516 55.7195 15.467C54.8972 15.959 54.2862 16.6266 53.8868 17.47L50.609 15.6076C51.3609 14.202 52.4417 13.1009 53.8515 12.3044C55.2614 11.4845 56.8592 11.0746 58.6449 11.0746Z" fill="white"/>
<path d="M86.0689 29.1011H81.5223L74.2969 20.9839V29.1011H70.4904V11.5314H74.2969V19.2972L81.1346 11.5314H85.787L78.033 20.1406L86.0689 29.1011Z" fill="white"/>
<path d="M94.8313 29.5579C92.1761 29.5579 89.9557 28.6677 88.1699 26.8873C86.4076 25.1069 85.5265 22.9166 85.5265 20.3163C85.5265 17.6925 86.4076 15.5021 88.1699 13.7452C89.9557 11.9648 92.1761 11.0746 94.8313 11.0746C96.5466 11.0746 98.1091 11.4845 99.5189 12.3044C100.929 13.1244 101.986 14.2254 102.691 15.6076L99.4132 17.5051C99.0137 16.6617 98.4028 16.0058 97.5804 15.5373C96.7815 15.0453 95.8534 14.7994 94.7961 14.7994C93.2452 14.7994 91.9412 15.3264 90.8838 16.3806C89.8499 17.4348 89.333 18.7467 89.333 20.3163C89.333 21.8858 89.8499 23.1977 90.8838 24.2519C91.9412 25.3061 93.2452 25.8332 94.7961 25.8332C95.8299 25.8332 96.758 25.5872 97.5804 25.0952C98.4263 24.6033 99.0608 23.9473 99.4837 23.1274L102.762 24.9898C102.01 26.3954 100.929 27.5081 99.5189 28.3281C98.1091 29.148 96.5466 29.5579 94.8313 29.5579Z" fill="white"/>
<path d="M119.441 11.5314V29.1011H115.634V15.1859H109.748V21.7218C109.748 24.5096 109.137 26.4891 107.915 27.6604C106.694 28.8317 104.955 29.312 102.699 29.1011V25.552C103.78 25.7395 104.591 25.5169 105.131 24.8844C105.671 24.2519 105.942 23.1391 105.942 21.5461V11.5314H119.441Z" fill="white"/>
<path d="M135.93 11.5314H138.856V29.1011H135.12V17.9268L126.097 29.1011H123.171V11.5314H126.907V22.6706L135.93 11.5314Z" fill="white"/>
<path fill-rule="evenodd" clip-rule="evenodd" d="M150.744 29.5579C148.042 29.5579 145.834 28.6912 144.118 26.9576C142.426 25.2006 141.581 22.9634 141.581 20.246C141.581 17.2708 142.027 14.9751 142.92 13.3586C143.813 11.7188 145.622 10.2312 148.348 8.89592C148.794 8.68508 149.452 8.38054 150.321 7.98229C151.214 7.58404 151.825 7.30293 152.154 7.13894C152.483 6.95153 152.894 6.69384 153.388 6.36587C153.881 6.01448 154.245 5.65137 154.48 5.27655C154.715 4.8783 154.903 4.40977 155.044 3.87097L158.146 5.66308C158.052 6.17846 157.899 6.6587 157.688 7.1038C157.476 7.52548 157.171 7.92372 156.771 8.29855C156.372 8.67337 156.019 8.97791 155.714 9.21217C155.432 9.44644 154.95 9.72755 154.269 10.0555C153.588 10.3835 153.082 10.6178 152.753 10.7583C152.448 10.8989 151.86 11.1448 150.991 11.4962C149.44 12.1053 148.301 12.7378 147.572 13.3938C146.867 14.0263 146.374 14.8228 146.092 15.7833C147.502 14.1903 149.417 13.3938 151.837 13.3938C153.905 13.3938 155.702 14.1317 157.23 15.6076C158.78 17.0834 159.556 18.9927 159.556 21.3353C159.556 23.7248 158.733 25.6926 157.089 27.2387C155.467 28.7849 153.353 29.5579 150.744 29.5579ZM150.709 26.0089C152.189 26.0089 153.4 25.5755 154.339 24.7087C155.279 23.8185 155.749 22.694 155.749 21.3353C155.749 19.9531 155.279 18.817 154.339 17.9268C153.423 17.0366 152.225 16.5915 150.744 16.5915C149.429 16.5915 148.242 17.0131 147.185 17.8565C146.127 18.6764 145.599 19.7774 145.599 21.1596C145.599 22.5652 146.092 23.7248 147.079 24.6384C148.066 25.552 149.276 26.0089 150.709 26.0089Z" fill="white"/>
<path fill-rule="evenodd" clip-rule="evenodd" d="M171.835 11.0746C174.255 11.0746 176.323 11.9765 178.038 13.7803C179.753 15.5607 180.611 17.7394 180.611 20.3163C180.611 22.9166 179.753 25.1069 178.038 26.8873C176.323 28.6677 174.255 29.5579 171.835 29.5579C169.156 29.5579 167.1 28.574 165.667 26.6062V36.129H161.86V11.5314H165.667V14.0614C167.1 12.0702 169.156 11.0746 171.835 11.0746ZM167.253 24.3573C168.31 25.4115 169.638 25.9386 171.236 25.9386C172.833 25.9386 174.161 25.4115 175.218 24.3573C176.276 23.2797 176.804 21.9327 176.804 20.3163C176.804 18.6998 176.276 17.3645 175.218 16.3104C174.161 15.2327 172.833 14.6939 171.236 14.6939C169.638 14.6939 168.31 15.2327 167.253 16.3104C166.195 17.3645 165.667 18.6998 165.667 20.3163C165.667 21.9327 166.195 23.2797 167.253 24.3573Z" fill="white"/>
<path d="M196.115 11.5314H199.04V29.1011H195.304V17.9268L186.281 29.1011H183.356V11.5314H187.092V22.6706L196.115 11.5314Z" fill="white"/>
<path d="M211.07 29.5579C208.415 29.5579 206.194 28.6677 204.408 26.8873C202.646 25.1069 201.765 22.9166 201.765 20.3163C201.765 17.6925 202.646 15.5021 204.408 13.7452C206.194 11.9648 208.415 11.0746 211.07 11.0746C212.785 11.0746 214.348 11.4845 215.757 12.3044C217.167 13.1244 218.225 14.2254 218.93 15.6076L215.652 17.5051C215.252 16.6617 214.641 16.0058 213.819 15.5373C213.02 15.0453 212.092 14.7994 211.035 14.7994C209.484 14.7994 208.18 15.3264 207.122 16.3806C206.088 17.4348 205.571 18.7467 205.571 20.3163C205.571 21.8858 206.088 23.1977 207.122 24.2519C208.18 25.3061 209.484 25.8332 211.035 25.8332C212.068 25.8332 212.997 25.5872 213.819 25.0952C214.665 24.6033 215.299 23.9473 215.722 23.1274L219 24.9898C218.248 26.3954 217.167 27.5081 215.757 28.3281C214.348 29.148 212.785 29.5579 211.07 29.5579Z" fill="white"/>
<path d="M0 0H40.1716V40H0V0Z" fill="#121212"/>
<path fill-rule="evenodd" clip-rule="evenodd" d="M18.5794 23.2V26.2H8.03432V23.2H16.7502L9.08882 15.5713L11.2193 13.45L18.5794 20.7787V11.2H21.5922V20.7353L28.9088 13.45L31.0392 15.5713L23.3778 23.2H32.1373V26.2H21.5922V23.2H18.5794Z" fill="white"/>
</svg>
