<svg width="621" height="567" viewBox="0 0 621 567" fill="none" xmlns="http://www.w3.org/2000/svg">
<path fill-rule="evenodd" clip-rule="evenodd" d="M2.95078 156.411C-12.6235 219.042 65.3491 306.36 146.719 351.532C195.972 378.785 239.571 387.964 270.352 378.411C269.489 382.225 268.69 386.028 267.958 389.816C253.007 467.813 267.248 525.004 306.614 543.56L311.922 546.062C330.899 552.813 346.443 551.91 360.302 543.08C394.737 521.454 412.343 456.23 415.732 404.058C417.939 373.007 419.424 345.583 420.223 330.807C420.613 323.604 420.84 319.406 420.91 319.259C421.499 315.696 424.511 312.727 428.239 312.838C431.967 312.949 435.316 316.174 435.169 319.945C434.979 321.502 432.411 359.247 429.991 404.744C425.993 493.939 444.382 550.342 472.69 563.686C474.902 564.729 477.114 565.771 479.093 566.156C509.255 573.24 568.205 492.391 600.847 399.689C623.087 336.101 633.72 261.556 595.934 245.39C581.801 239.825 569.964 239.732 558.464 245.834C535.907 258.245 515.394 297.408 505.792 357.076C501.686 383.123 499.412 401.804 499.644 402.461C498.843 406.474 494.947 409.026 491.43 408.466C487.912 407.905 485.216 404.439 485.363 400.668C485.276 400.421 485.698 397.619 486.42 392.834C487.615 384.9 489.633 371.512 491.512 355.283C498.397 302.564 497.972 211.283 448.875 188.14C439.586 183.762 428.592 181.871 415.891 182.468C400.495 183.58 385.403 189.953 371.057 200.268C369.043 167.624 318.527 102.776 254.031 53.2742C203.106 14.3604 138.843 -17.2918 113.058 12.1169C103.849 23.2589 100.266 33.9408 102.385 46.1482C106.941 70.2246 136.29 100.358 187.406 126.68C209.744 138.093 225.964 145.671 226.627 145.656C230.018 147.566 231.175 151.846 229.629 154.862C228.082 157.879 224.151 159.294 220.785 158.046C220.535 158.052 218.127 156.841 214.013 154.775C207.192 151.348 195.683 145.566 181.564 139.07C135.929 117.259 53.265 90.6662 17.8276 128.246C11.1232 135.356 6.16429 144.744 2.95078 156.411Z" fill="#FAFAFA"/>
</svg>
