<svg width="602" height="489" viewBox="0 0 602 489" fill="none" xmlns="http://www.w3.org/2000/svg">
<path fill-rule="evenodd" clip-rule="evenodd" d="M425.95 358.023L488.18 354.98C557.268 351.602 604.941 300.501 601.532 233.398C598.123 166.295 545.479 119.537 476.391 122.915L413.431 125.994L407.068 0.734375L296.193 6.15546L299.436 69.9908L243.392 27.776L239.902 32.3865L264.292 69.7597L0.703613 420.45L17.9356 480.481L27.769 487.888L96.4486 487.14L99.9378 482.53L62.3209 461.434L124.255 379.598C131.719 406.936 147.451 430.549 170.01 447.541C211.104 478.496 267.058 479.914 319.085 456.769L320.709 488.739L431.584 483.318L425.278 359.189C425.503 358.8 425.727 358.412 425.95 358.023ZM303.616 141.459C311.402 194.842 353.036 231.837 407.176 233.055C405.097 239.67 402.633 246.483 399.796 253.445C346.803 263.689 311.551 308.466 314.431 365.157L315.187 380.048C261.416 435.329 203.751 462.099 175.244 440.626C148.636 420.583 141.797 375.619 160.456 331.764L303.616 141.459Z" fill="#FAFAFA"/>
</svg>
