<svg width="22" height="22" viewBox="0 0 22 22" fill="none" xmlns="http://www.w3.org/2000/svg">
<path d="M10.9997 1.83337C16.0597 1.83337 20.1663 5.94004 20.1663 11C20.1663 16.06 16.0597 20.1667 10.9997 20.1667C5.93967 20.1667 1.83301 16.06 1.83301 11C1.83301 5.94004 5.93967 1.83337 10.9997 1.83337ZM5.52105 14.1316C6.86627 16.1397 8.88686 17.4167 11.1461 17.4167C13.4053 17.4167 15.4259 16.1397 16.7711 14.1316C15.2975 12.7575 13.3199 11.9167 11.1461 11.9167C8.9722 11.9167 6.99471 12.7575 5.52105 14.1316ZM10.9997 10.0834C12.5185 10.0834 13.7497 8.85215 13.7497 7.33337C13.7497 5.81459 12.5185 4.58337 10.9997 4.58337C9.48085 4.58337 8.24967 5.81459 8.24967 7.33337C8.24967 8.85215 9.48085 10.0834 10.9997 10.0834Z" fill="#F5742A"/>
</svg>
