<svg width="22" height="22" viewBox="0 0 22 22" fill="none" xmlns="http://www.w3.org/2000/svg">
<path d="M19.25 15.0517V18.2931C19.25 18.7743 18.8779 19.1736 18.398 19.2076C17.997 19.2359 17.6699 19.25 17.4167 19.25C9.31645 19.25 2.75 12.6836 2.75 4.58333C2.75 4.33007 2.76416 4.00296 2.79249 3.60204C2.82642 3.12206 3.22569 2.75 3.70687 2.75H6.94843C7.18372 2.75 7.38078 2.92822 7.4044 3.16232C7.42561 3.37248 7.44533 3.54121 7.46356 3.66852C7.64899 4.96349 8.02774 6.19608 8.56964 7.33611C8.65662 7.5191 8.5999 7.73812 8.43503 7.85589L6.45659 9.26915C7.66106 12.0827 9.91733 14.339 12.7309 15.5435L14.1415 13.5684C14.2608 13.4016 14.4824 13.3442 14.6676 13.4321C15.8075 13.9736 17.04 14.3519 18.3348 14.5369C18.4613 14.555 18.629 14.5745 18.8377 14.5956C19.0718 14.6193 19.25 14.8164 19.25 15.0517Z" fill="#595959"/>
</svg>
