<svg width="22" height="22" viewBox="0 0 22 22" fill="none" xmlns="http://www.w3.org/2000/svg">
<path d="M14.0901 3.15332L17.0335 8.25182L20.1712 8.25199V10.0853L19.1015 10.0852L18.4079 18.4114C18.3683 18.8865 17.9711 19.252 17.4944 19.252H4.51469C4.03794 19.252 3.64077 18.8865 3.60118 18.4114L2.90672 10.0852L1.83789 10.0853V8.25199L4.97472 8.25182L7.91904 3.15332L9.50674 4.06999L7.09222 8.25182H14.916L12.5024 4.06999L14.0901 3.15332ZM11.9212 11.9187H10.0879V15.5853H11.9212V11.9187ZM8.25456 11.9187H6.42122V15.5853H8.25456V11.9187ZM15.5879 11.9187H13.7546V15.5853H15.5879V11.9187Z" fill="#F5742A"/>
</svg>
