<svg width="712" height="1041" viewBox="0 0 712 1041" fill="none" xmlns="http://www.w3.org/2000/svg">
<path d="M161.06 60.4302L188.473 164.437C190.75 173.076 195.858 179.968 203.622 184.446C211.386 188.924 220.081 189.994 229.019 187.823L311.177 167.866C320.115 165.695 326.89 160.868 331.501 153.383C336.112 145.899 337.192 137.505 334.915 128.866L323.792 86.6648C323.091 84.0065 321.278 82.679 318.528 83.347L258.026 98.0432C255.276 98.7112 254.339 100.707 255.04 103.365L268.352 153.873C268.877 155.867 268.109 157.114 266.046 157.615L262.953 158.367C260.89 158.868 259.94 158.038 259.414 156.044L227.622 35.4229C227.184 33.7614 227.609 32.5976 229.672 32.0965L232.766 31.345C234.828 30.844 236.122 31.5904 236.56 33.2519L250.223 85.089C251.011 88.0796 252.736 89.0748 255.486 88.4068L315.988 73.7106C318.738 73.0426 319.763 71.3795 318.975 68.3889L307.502 24.859C305.312 16.5517 300.292 9.99286 292.527 5.51466C284.763 1.03647 276.325 -0.449412 267.387 1.72161L185.228 21.6783C176.29 23.8493 169.26 29.0927 164.649 36.5769C160.037 44.0611 158.87 52.123 161.06 60.4302Z" fill="#FAFAFA"/>
<path fill-rule="evenodd" clip-rule="evenodd" d="M471.563 243.031C466.076 247.464 460.84 250.874 455.854 253.26C450.867 255.646 445.953 256.695 441.111 256.409C436.269 256.123 431.349 254.439 426.352 251.357C421.354 248.275 415.998 243.475 410.283 236.957C406.255 232.362 401.857 230.073 397.09 230.091C392.417 230.216 387.019 232.022 380.894 235.51L392.418 248.654C398.695 255.813 403.27 262.34 406.142 268.234C409.22 274.145 410.4 279.855 409.683 285.364C409.171 290.889 406.734 296.509 402.371 302.225C398.009 307.94 391.685 314.146 383.399 320.841C375.113 327.536 367.693 332.71 361.14 336.362C354.698 339.924 348.524 341.719 342.617 341.745C336.71 341.771 330.771 339.907 324.8 336.151C319.034 332.412 312.685 326.589 305.752 318.681C298.726 310.667 293.851 303.47 291.127 297.091C288.609 290.728 288.259 284.438 290.078 278.222C292.009 271.915 296.089 265.332 302.319 258.473C308.642 251.721 317.234 243.957 328.095 235.181C333.693 230.657 340.18 226.055 347.554 221.374C355.04 216.604 362.781 212.996 370.776 210.552C378.978 208.124 387.061 207.525 395.027 208.756C403.087 210.094 410.395 214.503 416.954 221.983C419.764 225.188 422.563 227.399 425.351 228.615C428.251 229.741 431.112 230.168 433.934 229.895C436.868 229.533 439.81 228.525 442.76 226.871C445.71 225.218 448.753 223.124 451.888 220.591L471.563 243.031ZM368.294 244.048C364.524 246.73 360.511 249.79 356.256 253.228C352.095 256.773 347.551 260.535 342.624 264.516C334.674 270.94 328.423 276.356 323.871 280.764C319.32 285.173 316.168 288.997 314.418 292.237C312.667 295.477 312.085 298.412 312.67 301.043C313.46 303.69 315.074 306.403 317.509 309.181C319.945 311.96 322.463 313.85 325.064 314.852C327.664 315.854 330.665 315.895 334.065 314.973C337.577 313.96 341.545 311.941 345.969 308.914C350.599 305.903 356.049 301.865 362.319 296.798C368.59 291.731 373.497 287.401 377.041 283.807C380.791 280.229 383.317 277.002 384.62 274.124C385.922 271.245 386.169 268.581 385.36 266.132C384.663 263.591 383.097 260.932 380.661 258.154L368.294 244.048Z" fill="#FAFAFA"/>
<path fill-rule="evenodd" clip-rule="evenodd" d="M59.9545 229.352L49.1003 261.104L39.9249 251.759L0 286.115L1.78516 288.027L20.944 280.592L156.893 425.227L185.714 422.838L189.956 419.188L195.728 389.222L193.943 387.311L181.006 401.891L149.319 367.955C162.41 367.034 174.544 362.196 184.275 353.822C213.221 328.914 209.899 280.052 176.874 244.682C143.625 209.073 93.3916 200.579 64.446 225.487L59.9545 229.352ZM181.598 350.954C170.119 360.832 149.072 359.979 130.798 348.119L53.3401 265.645L65.3771 229.858L67.1238 228.354C82.0956 215.471 119.735 232.648 151.422 266.584C182.885 300.281 196.57 338.071 181.598 350.954Z" fill="#FAFAFA"/>
<path fill-rule="evenodd" clip-rule="evenodd" d="M393.127 569.983C410.934 590.541 409.663 611.603 405.563 625.895C398.188 650.493 376.59 674.225 350.136 686.067C339.177 690.973 328.389 693.391 318.529 692.983C269.186 691.305 224.963 641.261 218.833 634.324L218.591 634.051C217.732 633.23 217.411 632.57 217.411 632.57C216.072 630.758 213.003 630.123 210.357 631.307C209.979 631.477 209.601 631.646 209.384 632.145C206.521 633.828 205.914 637.315 207.952 639.617L208.594 640.937C212.51 645.211 243.658 684.71 235.939 714.284C233.26 723.922 227.247 731.435 216.609 737.001C215.635 737.839 214.124 738.515 212.99 739.023C201.275 744.267 188.666 743.884 175.543 737.704C136.332 719.495 99.9627 652.197 91.6839 581.164C83.8173 514.768 145.188 450.73 209.81 421.801C236.263 409.959 259.991 405.766 276.951 409.425C301.504 414.507 318.727 432.916 322.025 456.754C327.796 495.156 298.788 538.68 244.438 572.654C238.334 576.19 234.876 578.542 234.876 578.542C232.173 580.556 231.406 583.712 233.066 586.183C234.727 588.654 238.174 589.12 241.037 587.437L250.759 581.879C256.863 578.343 266.208 572.954 277.923 567.71C314.958 551.131 365.128 537.914 393.127 569.983ZM202.8 568.39L183.745 510.217C182.84 507.408 179.45 506.112 176.267 507.136C173.083 508.159 171.4 511.324 172.305 514.133L191.199 571.976C192.104 574.785 195.494 576.081 198.677 575.057L199.433 574.719C202.078 573.535 203.544 570.869 202.8 568.39Z" fill="#FAFAFA"/>
<path d="M25.7149 956.685L127.301 735.348L178.246 756.897L76.6604 978.234L25.7149 956.685Z" fill="#FAFAFA"/>
<path d="M246.568 854.399L272.935 796.949L326.014 819.4L300 876.081C286.816 904.806 255.292 916.585 225.418 903.949L190.21 889.057L186.325 897.521L221.534 912.413C251.408 925.049 263.627 955.331 250.443 984.056L224.429 1040.74L171.35 1018.29L197.717 960.835L167.577 948.086C134.502 934.096 120.855 901.373 134.98 870.596C149.106 839.819 183.353 827.66 216.427 841.65L246.568 854.399Z" fill="#FAFAFA"/>
<path d="M708.442 530.681C697.268 585.014 660.526 645.127 620.521 647.753C613.009 648.065 606.511 646.973 601.027 644.476C572.042 631.276 571.983 579.604 576.167 549.776C577.312 540.593 578.533 533.019 579.257 528.53C579.694 525.823 579.95 524.238 579.899 524.097C579.994 521.963 578.407 519.996 576.328 519.671C574.249 519.347 571.939 520.784 571.457 523.053C571.593 523.426 570.209 533.996 567.726 548.732C561.921 582.488 549.707 604.615 536.342 611.595C529.528 615.026 522.528 614.949 514.182 611.771C491.871 602.543 498.317 560.367 511.603 524.418C531.103 472.009 566.135 426.362 583.956 430.433C585.126 430.655 586.432 431.25 587.738 431.844C604.45 439.455 615.206 471.42 612.653 521.902C611.125 547.651 609.527 569.013 609.411 569.893C609.316 572.028 611.29 573.86 613.494 573.931C615.699 574.001 617.486 572.326 617.842 570.311C617.883 570.227 618.026 567.856 618.272 563.787L618.273 563.772L618.273 563.769V563.767C618.777 555.403 619.713 539.886 621.084 522.32C623.198 492.794 633.747 455.909 654.157 443.737C662.371 438.766 671.566 438.286 682.774 442.146L685.907 443.573C709.148 454.157 717.448 486.56 708.442 530.681Z" fill="#FAFAFA"/>
<path d="M392.078 414.483L409.208 526.73L436.446 512.502L421.854 434.122L482.482 488.456L511.254 473.427L422.384 398.652L392.078 414.483Z" fill="#FAFAFA"/>
</svg>
