<svg width="670" height="979" viewBox="0 0 670 979" fill="none" xmlns="http://www.w3.org/2000/svg">
<path d="M354.31 538.728C370.251 557.955 369.113 577.653 365.443 591.019C358.841 614.024 339.507 636.22 315.827 647.295C306.016 651.884 296.36 654.145 287.533 653.764C242.726 652.172 202.634 604.03 198.072 598.647C197.303 597.879 197.016 597.262 197.016 597.262C195.817 595.568 193.07 594.974 190.702 596.082C190.363 596.24 190.025 596.398 189.83 596.865C187.268 598.439 186.724 601.7 188.549 603.853C188.549 603.853 188.692 604.162 189.123 605.088C192.629 609.085 220.511 646.026 213.602 673.685C211.203 682.699 205.821 689.725 196.298 694.931C195.426 695.715 194.073 696.347 193.058 696.822C182.571 701.727 171.285 701.368 159.537 695.589C124.437 678.558 91.8805 615.618 84.4696 549.185C77.4278 487.089 132.364 427.197 190.212 400.141C213.892 389.066 235.132 385.145 250.314 388.567C272.293 393.32 287.71 410.536 290.662 432.831C295.829 468.747 269.862 509.452 221.21 541.226C215.746 544.533 212.65 546.733 212.65 546.733C210.231 548.616 209.544 551.568 211.03 553.879C212.517 556.19 215.602 556.626 218.165 555.052C221.066 553.319 223.967 551.586 226.868 549.854C232.332 546.547 240.697 541.507 251.184 536.602C284.336 521.097 329.247 508.736 354.31 538.728ZM183.937 537.238L166.879 482.832C166.069 480.205 163.035 478.993 160.185 479.95C157.335 480.907 155.829 483.867 156.638 486.495L173.552 540.592C174.362 543.219 177.396 544.431 180.246 543.474C180.584 543.316 180.584 543.316 180.923 543.157C183.291 542.05 184.603 539.557 183.937 537.238Z" fill="#C6D1F1"/>
<path d="M25.4158 900.391L116.352 693.387L161.956 713.54L71.0203 920.544L25.4158 900.391ZM223.115 804.728L246.718 750.998L294.233 771.996L270.946 825.007C259.144 851.871 230.925 862.888 204.183 851.07L172.666 837.142L169.188 845.058L200.706 858.986C227.448 870.804 238.386 899.125 226.584 925.99L203.297 979L155.783 958.003L179.386 904.273L152.405 892.349C122.798 879.265 110.582 848.661 123.226 819.877C135.871 791.093 166.527 779.721 196.134 792.805L223.115 804.728Z" fill="#C6D1F1"/>
<path fill-rule="evenodd" clip-rule="evenodd" d="M46.3498 249.849L56.0661 220.153L60.0868 216.538C85.9978 193.243 130.965 201.187 160.728 234.49C190.291 267.57 193.265 313.268 167.354 336.563C158.642 344.395 147.781 348.92 136.062 349.781L164.427 381.52L176.008 367.883L177.606 369.671L172.439 397.697L168.641 401.111L142.842 403.345L21.1454 268.075L3.99504 275.029L2.39703 273.241L38.1364 241.109L46.3498 249.849ZM119.483 331.23C135.841 342.321 154.682 343.119 164.957 333.881C178.359 321.832 166.109 286.489 137.944 254.974C109.579 223.235 75.886 207.171 62.4838 219.22L60.9202 220.626L50.1451 254.096L119.483 331.23Z" fill="#C6D1F1"/>
<path d="M636.568 501.971C626.566 552.786 593.675 609.006 557.864 611.463C551.14 611.755 545.323 610.733 540.415 608.397C514.468 596.052 514.416 547.727 518.16 519.829C519.803 506.063 521.622 496.163 521.501 495.814C521.586 493.818 520.165 491.978 518.304 491.674C516.443 491.371 514.376 492.715 513.945 494.837C514.066 495.186 512.827 505.071 510.604 518.853C505.408 550.424 494.475 571.118 482.51 577.646C476.411 580.854 470.145 580.783 462.674 577.81C442.702 569.18 448.472 529.735 460.365 496.113C477.821 447.098 509.18 404.407 525.133 408.215C526.181 408.422 527.349 408.978 528.518 409.535C543.478 416.653 553.107 446.548 550.821 493.761C549.454 517.843 548.023 537.821 547.92 538.644C547.835 540.641 549.601 542.354 551.575 542.42C553.548 542.486 555.148 540.92 555.467 539.035C555.579 538.797 556.543 518.597 558.368 494.151C560.261 466.537 569.704 432.04 587.975 420.657C595.328 416.008 603.558 415.559 613.591 419.169C614.526 419.614 615.461 420.059 616.396 420.504C637.2 430.403 644.631 460.707 636.568 501.971Z" fill="#C6D1F1"/>
<path d="M368.705 498.276L353.37 393.297L380.499 378.492L460.052 448.424L434.296 462.48L380.025 411.665L393.087 484.97L368.705 498.276Z" fill="#C6D1F1"/>
<path fill-rule="evenodd" clip-rule="evenodd" d="M424.522 232.947C419.611 237.093 414.924 240.282 410.46 242.514C405.997 244.745 401.598 245.727 397.263 245.459C392.929 245.191 388.525 243.616 384.051 240.734C379.578 237.852 374.783 233.363 369.667 227.266C366.061 222.969 362.124 220.829 357.857 220.846C353.674 220.962 348.842 222.652 343.359 225.914L353.675 238.206C359.294 244.902 363.389 251.006 365.96 256.519C368.716 262.047 369.772 267.387 369.13 272.539C368.671 277.706 366.49 282.963 362.585 288.308C358.68 293.654 353.019 299.457 345.601 305.719C338.184 311.98 331.542 316.819 325.676 320.235C319.909 323.566 314.382 325.245 309.095 325.269C303.807 325.294 298.49 323.55 293.145 320.038C287.985 316.541 282.301 311.094 276.095 303.699C269.805 296.204 265.441 289.473 263.003 283.506C260.749 277.555 260.436 271.673 262.064 265.859C263.793 259.961 267.445 253.804 273.021 247.389C278.681 241.074 286.373 233.813 296.095 225.605C301.107 221.375 306.913 217.07 313.514 212.693C320.215 208.231 327.145 204.857 334.302 202.571C341.644 200.3 348.88 199.741 356.01 200.892C363.225 202.143 369.768 206.266 375.638 213.262C378.154 216.26 380.66 218.328 383.156 219.465C385.751 220.518 388.312 220.917 390.839 220.662C393.465 220.323 396.099 219.38 398.739 217.834C401.38 216.287 404.104 214.33 406.91 211.96L424.522 232.947ZM332.08 233.899C328.705 236.407 325.113 239.268 321.304 242.484C317.579 245.799 313.512 249.318 309.101 253.041C301.985 259.049 296.389 264.114 292.315 268.237C288.24 272.36 285.419 275.937 283.852 278.967C282.285 281.997 281.763 284.742 282.287 287.203C282.995 289.679 284.439 292.216 286.619 294.814C288.8 297.413 291.054 299.18 293.382 300.118C295.71 301.055 298.396 301.093 301.439 300.231C304.583 299.284 308.135 297.395 312.096 294.564C316.24 291.748 321.119 287.971 326.732 283.233C332.345 278.494 336.737 274.444 339.91 271.083C343.267 267.737 345.528 264.718 346.694 262.026C347.86 259.335 348.081 256.843 347.357 254.552C346.733 252.176 345.331 249.689 343.151 247.091L332.08 233.899Z" fill="#C6D1F1"/>
<path d="M171.111 159.441L146.572 62.1694C144.612 54.4001 145.657 46.8603 149.785 39.8607C153.913 32.8611 160.206 27.9572 168.207 25.9268L241.753 7.26235C249.753 5.23191 257.307 6.62157 264.257 10.8098C271.208 14.998 275.702 21.1322 277.662 28.9015L287.932 69.6127C288.638 72.4097 287.721 73.9651 285.259 74.5899L231.1 88.3344C228.638 88.9592 227.093 88.0284 226.388 85.2315L214.158 36.7509C213.766 35.1971 212.607 34.499 210.761 34.9676L207.991 35.6704C206.145 36.139 205.765 37.2275 206.157 38.7814L234.616 151.592C235.086 153.457 235.937 154.233 237.783 153.764L240.553 153.061C242.399 152.593 243.087 151.426 242.617 149.561L230.7 102.324C230.073 99.8378 230.912 97.9716 233.373 97.3468L287.532 83.6023C289.994 82.9776 291.617 84.219 292.244 86.7052L302.201 126.173C304.239 134.253 303.273 142.104 299.145 149.104C295.017 156.103 288.953 160.618 280.952 162.649L207.407 181.313C199.406 183.344 191.623 182.343 184.673 178.155C177.722 173.966 173.15 167.521 171.111 159.441Z" fill="#C6D1F1"/>
<path d="M386.482 830.96L336 724.974C331.967 716.508 331.445 707.617 334.593 698.637C337.741 689.658 343.86 682.586 352.6 678.42L432.945 640.124C441.686 635.958 450.694 635.819 459.648 639.03C468.603 642.241 475.176 648.248 479.209 656.713L500.337 701.072C501.788 704.119 501.089 706.115 498.4 707.397L439.233 735.598C436.544 736.88 434.554 736.166 433.103 733.119L407.942 680.295C407.136 678.602 405.643 678.067 403.626 679.028L400.601 680.47C398.584 681.432 398.395 682.768 399.202 684.461L457.748 807.378C458.716 809.41 459.872 810.105 461.889 809.144L464.915 807.702C466.932 806.74 467.456 805.244 466.489 803.212L441.973 751.743C440.683 749.034 441.221 746.7 443.911 745.418L503.077 717.216C505.766 715.934 507.917 716.987 509.208 719.695L529.691 762.699C533.884 771.503 534.568 780.734 531.42 789.713C528.272 798.692 522.328 805.265 513.588 809.431L433.243 847.727C424.502 851.893 415.319 852.531 406.365 849.321C397.41 846.11 390.675 839.764 386.482 830.96Z" fill="#C6D1F1"/>
</svg>
