<svg width="301" height="314" viewBox="0 0 301 314" fill="none" xmlns="http://www.w3.org/2000/svg">
<path d="M297.88 220.451C305.057 247.752 294.503 267.362 284.372 279.282C266.643 299.662 236.25 313.12 206.701 313.12C194.46 313.12 183.484 310.813 174.62 306.199C129.452 283.128 111.301 214.683 109.19 206.993C108.768 205.839 108.768 205.07 108.768 205.07C108.346 202.763 105.813 200.84 102.858 200.84C102.436 200.84 102.014 200.84 101.592 201.225C98.2149 201.609 96.1043 204.685 96.9485 207.762C96.9485 207.762 96.9485 208.146 96.9485 209.3C98.637 215.068 109.612 266.209 89.3503 291.203C82.5962 299.278 73.7316 303.892 61.4899 304.661C60.2236 305.045 58.535 305.045 57.2687 305.045C44.1828 305.045 32.7854 299.278 23.4986 287.742C-4.36172 253.52 -7.73873 173.539 16.3225 102.018C38.6951 35.1118 123.542 0.120361 195.726 0.120361C225.275 0.120361 248.914 6.27268 262.844 17.0393C283.106 32.4201 290.704 57.414 283.106 81.6388C271.287 120.86 225.275 150.083 160.267 159.312C153.091 160.081 148.87 160.85 148.87 160.85C145.493 161.619 143.382 164.311 143.804 167.387C144.227 170.463 147.182 172.386 150.559 172.001C154.358 171.617 158.157 171.232 161.956 170.848C169.132 170.079 180.107 168.925 193.193 168.925C234.562 168.925 286.483 177.769 297.88 220.451ZM123.965 137.394L132.407 73.5638C132.829 70.4877 130.296 67.796 126.919 67.4115C123.542 67.027 120.588 69.3341 120.165 72.4103L111.723 135.856C111.301 138.932 113.834 141.624 117.211 142.009C117.633 142.009 117.633 142.009 118.055 142.009C121.01 142.009 123.542 140.086 123.965 137.394Z" fill="#C6D1F1"/>
</svg>
