<svg width="240" height="284" viewBox="0 0 240 284" fill="none" xmlns="http://www.w3.org/2000/svg">
<path d="M0 230.608L0 52.824C0 38.624 5.07042 26.128 15.2113 15.904C25.3521 5.67999 38.3099 0 52.9577 0L187.606 0C202.254 0 214.648 5.67999 224.789 15.904C234.93 26.128 240 38.624 240 52.824V127.232C240 132.344 237.746 134.616 233.239 134.616H134.084C129.577 134.616 127.324 132.344 127.324 127.232V38.624C127.324 35.784 125.634 34.08 122.254 34.08H117.183C113.803 34.08 112.676 35.784 112.676 38.624L112.676 244.808C112.676 248.216 113.803 249.92 117.183 249.92H122.254C125.634 249.92 127.324 248.216 127.324 244.808V158.472C127.324 153.928 129.577 151.088 134.084 151.088H233.239C237.746 151.088 240 153.928 240 158.472V230.608C240 245.376 234.93 258.44 224.789 268.664C214.648 278.888 202.254 284 187.606 284H52.9577C38.3099 284 25.3521 278.888 15.2113 268.664C5.07042 258.44 0 245.376 0 230.608Z" fill="#C6D1F1"/>
</svg>
